<?xml version="1.0" encoding="UTF-8" standalone="no"?>
<!-- Created with Inkscape (http://www.inkscape.org/) -->

<svg
   xmlns:dc="http://purl.org/dc/elements/1.1/"
   xmlns:cc="http://creativecommons.org/ns#"
   xmlns:rdf="http://www.w3.org/1999/02/22-rdf-syntax-ns#"
   xmlns:svg="http://www.w3.org/2000/svg"
   xmlns="http://www.w3.org/2000/svg"
   xmlns:xlink="http://www.w3.org/1999/xlink"
   xmlns:sodipodi="http://sodipodi.sourceforge.net/DTD/sodipodi-0.dtd"
   xmlns:inkscape="http://www.inkscape.org/namespaces/inkscape"
   width="210mm"
   height="297mm"
   viewBox="0 0 210 297"
   version="1.1"
   id="svg8"
   inkscape:version="0.92.4 (5da689c313, 2019-01-14)"
   sodipodi:docname="logoPosto.svg">
  <defs
     id="defs2">
    <linearGradient
       inkscape:collect="always"
       id="linearGradient3836">
      <stop
         style="stop-color:#ff9955;stop-opacity:1;"
         offset="0"
         id="stop3832" />
      <stop
         style="stop-color:#ff9955;stop-opacity:0;"
         offset="1"
         id="stop3834" />
    </linearGradient>
    <linearGradient
       inkscape:collect="always"
       xlink:href="#linearGradient3836"
       id="linearGradient3838"
       x1="458.87741"
       y1="135.94023"
       x2="458.87741"
       y2="172.09616"
       gradientUnits="userSpaceOnUse" />
  </defs>
  <sodipodi:namedview
     id="base"
     pagecolor="#ffffff"
     bordercolor="#666666"
     borderopacity="1.0"
     inkscape:pageopacity="0.0"
     inkscape:pageshadow="2"
     inkscape:zoom="1"
     inkscape:cx="506.82103"
     inkscape:cy="615.51196"
     inkscape:document-units="mm"
     inkscape:current-layer="layer1"
     showgrid="false"
     showguides="true"
     inkscape:guide-bbox="true"
     inkscape:window-width="1366"
     inkscape:window-height="715"
     inkscape:window-x="-8"
     inkscape:window-y="-8"
     inkscape:window-maximized="1" />
  <metadata
     id="metadata5">
    <rdf:RDF>
      <cc:Work
         rdf:about="">
        <dc:format>image/svg+xml</dc:format>
        <dc:type
           rdf:resource="http://purl.org/dc/dcmitype/StillImage" />
        <dc:title></dc:title>
      </cc:Work>
    </rdf:RDF>
  </metadata>
  <g
     inkscape:label="Camada 1"
     inkscape:groupmode="layer"
     id="layer1">
    <g
       id="g45"
       transform="matrix(0.51839476,0,0,0.85707903,-135.66728,19.610898)"
       style="fill:#ff9955">
      <path
         style="fill:url(#linearGradient3838);fill-opacity:1;stroke:#000000;stroke-width:1;stroke-miterlimit:4;stroke-dasharray:none;stroke-opacity:1"
         id="path33"
         sodipodi:type="arc"
         sodipodi:cx="466.02161"
         sodipodi:cy="131.86229"
         sodipodi:rx="201.46132"
         sodipodi:ry="44.223213"
         sodipodi:start="0"
         sodipodi:end="6.282941"
         sodipodi:open="true"
         d="M 667.48293,131.86229 A 201.46132,44.223213 0 0 1 466.03391,176.0855 201.46132,44.223213 0 0 1 264.56029,131.86769 201.46132,44.223213 0 0 1 465.98469,87.639077 201.46132,44.223213 0 0 1 667.48292,131.85149" />
    </g>
    <g
       aria-label="TriGas"
       transform="scale(0.92751697,1.0781474)"
       style="font-style:normal;font-variant:normal;font-weight:normal;font-stretch:normal;font-size:43.62182999px;line-height:1.25;font-family:'Baskerville Old Face';-inkscape-font-specification:'Baskerville Old Face';letter-spacing:0px;word-spacing:0px;fill:#000000;fill-opacity:1;stroke:none;stroke-width:1.09054577"
       id="text37">
      <path
         d="m 35.043016,108.52791 v 26.62761 q 0,0.8838 0.325213,1.26906 0.173447,0.22662 0.325214,0.29459 0.151766,0.0453 0.99732,0.27195 1.040682,0.24929 1.040682,1.2464 0,0.58921 -0.563702,0.95179 -0.411937,0.27195 -1.387578,0.27195 h -0.715468 -9.669673 -0.715469 q -0.953959,0 -1.452618,-0.29461 -0.47698,-0.31726 -0.47698,-0.92913 0,-0.99711 1.040682,-1.2464 0.845554,-0.22662 0.997321,-0.27195 0.151766,-0.068 0.303532,-0.29459 0.325213,-0.38526 0.325213,-1.26906 v -26.62761 z m 7.501585,0 v 9.26867 q 0,0.65719 -0.368576,1.0651 -0.346893,0.40791 -0.910596,0.40791 -0.542022,0 -0.910597,-0.36258 -0.346895,-0.38525 -0.455298,-1.04243 l -0.21681,-1.38239 q -0.325212,-2.10753 -1.257491,-3.64854 -0.585384,-0.9518 -1.582704,-1.56367 v -2.74207 z m -24.586119,0 h 5.702072 v 2.74207 q -1.019002,0.61187 -1.582705,1.56367 -0.932278,1.54101 -1.257491,3.64854 l -0.216809,1.38239 q -0.108403,0.65718 -0.476979,1.04243 -0.346894,0.36258 -0.888916,0.36258 -0.563703,0 -0.932277,-0.40791 -0.346895,-0.40791 -0.346895,-1.0651 z"
         style="font-style:normal;font-variant:normal;font-weight:normal;font-stretch:normal;font-family:Stencil;-inkscape-font-specification:Stencil;fill:#000000;stroke-width:1.13489473"
         id="path67"
         inkscape:connector-curvature="0" />
      <path
         d="m 55.588511,117.79033 v 18.47162 q 0,0.61311 0.278658,0.88036 0.148617,0.15721 0.278657,0.20436 0.13004,0.0315 0.85455,0.18864 0.891704,0.17293 0.891704,0.86464 0,0.40873 -0.483007,0.66025 -0.352966,0.18866 -1.170361,0.18866 h -0.631623 -8.285414 -0.483006 q -0.668778,0 -1.040321,-0.20437 -0.352966,-0.22009 -0.352966,-0.6131 0,-0.64454 0.743087,-0.84891 0.613046,-0.17293 0.705931,-0.20437 0.111464,-0.0472 0.222926,-0.18864 0.222927,-0.25154 0.222927,-0.80176 v -15.73625 q 0,-0.55022 -0.222927,-0.80175 -0.111462,-0.14147 -0.222926,-0.17292 -0.09288,-0.0472 -0.705931,-0.22009 -0.743087,-0.20437 -0.743087,-0.8489 0,-0.39302 0.352966,-0.59738 0.371543,-0.22009 1.040321,-0.22009 h 0.483006 z m 5.703189,10.94149 q 1.709098,0.22009 2.619379,0.48733 0.928858,0.26725 1.671944,0.72315 0.780241,0.48734 1.188938,1.16332 0.427275,0.67598 0.427275,1.43057 v 3.25415 q 0,0.50306 0.39012,0.50306 0.148618,0 0.241504,-0.0629 0.111463,-0.0786 0.297234,-0.28296 0.464429,-0.53451 0.947435,-0.53451 0.315812,0 0.631624,0.28298 0.315812,0.28297 0.315812,0.56593 0,0.48735 -0.557315,1.19476 -0.538738,0.69171 -1.356133,1.24193 -0.761663,0.51878 -1.653367,0.73887 -0.891703,0.2358 -2.099219,0.2358 -2.452186,0 -3.826895,-1.17904 -1.37471,-1.19475 -1.37471,-3.31703 v -2.64105 q 0,-0.88035 -0.01858,-1.02184 -0.09289,-0.62882 -0.52016,-1.08471 -0.538738,-0.55022 -1.541905,-0.64455 V 128.103 q 1.003167,-0.12576 1.430441,-0.44018 0.371544,-0.28297 0.501584,-0.64454 0.148617,-0.36157 0.148617,-1.06899 v -4.16595 q 0,-0.99039 -0.464429,-1.47772 -0.445852,-0.48734 -1.63479,-0.77031 v -1.74498 h 0.483006 q 2.062065,0 3.511083,0.12576 2.154951,0.17293 3.845473,1.19476 2.433607,1.46201 2.433607,4.16594 0,2.21659 -1.634789,3.63145 -0.687356,0.59738 -1.616214,0.97467 -0.910281,0.3773 -2.786573,0.84891 z"
         style="font-style:normal;font-variant:normal;font-weight:normal;font-stretch:normal;font-family:Stencil;-inkscape-font-specification:Stencil;fill:#000000;stroke-width:0.87497032"
         id="path69"
         inkscape:connector-curvature="0" />
      <path
         d="m 83.552978,139.50102 h -7.218886 -0.420831 q -0.58269,0 -0.906408,-0.20705 -0.30753,-0.22296 -0.30753,-0.62114 0,-0.65299 0.647433,-0.86003 0.534133,-0.1752 0.615063,-0.20705 0.09711,-0.0478 0.194229,-0.19112 0.194231,-0.25483 0.194231,-0.81226 v -15.94259 q 0,-0.55743 -0.194231,-0.81226 -0.09712,-0.14334 -0.194229,-0.17519 -0.08093,-0.0478 -0.615063,-0.22297 -0.647433,-0.20704 -0.647433,-0.86004 0,-0.39817 0.30753,-0.60521 0.323718,-0.22298 0.906408,-0.22298 h 0.420831 7.218886 0.420833 q 0.58269,0 0.890221,0.22298 0.323717,0.20704 0.323717,0.60521 0,0.653 -0.647434,0.86004 -0.534132,0.17519 -0.631248,0.22297 -0.08093,0.0318 -0.178044,0.17519 -0.19423,0.25483 -0.19423,0.81226 v 15.94259 q 0,0.55743 0.19423,0.81226 0.09712,0.14335 0.178044,0.19112 0.09712,0.0318 0.631248,0.20705 0.647434,0.20704 0.647434,0.86003 0,0.39818 -0.323717,0.62114 -0.307531,0.20705 -0.890221,0.20705 z"
         style="font-style:normal;font-variant:normal;font-weight:normal;font-stretch:normal;font-family:Stencil;-inkscape-font-specification:Stencil;fill:#000000;stroke-width:0.82205337"
         id="path71"
         inkscape:connector-curvature="0" />
      <path
         d="m 103.62596,108.57256 v 2.36427 q -1.87437,0.44729 -1.87437,2.98196 v 19.83004 q 0,1.15018 0.31949,1.76788 0.2769,0.51119 1.17149,0.87329 v 2.40686 q -0.68159,0 -1.25669,-0.10649 -0.55379,-0.1065 -1.49098,-0.426 -2.236467,-0.76679 -4.046944,-2.34297 -1.810476,-1.57618 -2.981961,-3.77005 -1.810476,-3.42925 -1.810476,-8.11519 0,-4.53684 1.618779,-8.0513 1.618779,-3.51445 4.643339,-5.51663 1.746577,-1.17148 3.748753,-1.68267 0.83069,-0.213 1.95957,-0.213 z m 1.74658,2.32167 v -2.30037 q 3.47185,0.31949 5.70833,1.27798 0.66029,0.2982 1.02238,0.2982 0.3408,0 0.5112,-0.1491 0.19169,-0.1704 0.74549,-0.91589 0.38339,-0.53249 0.95848,-0.53249 0.5964,0 0.83069,0.34079 0.2556,0.3195 0.2556,1.08629 v 8.28559 q 0,1.61878 -1.19279,1.61878 -0.59639,0 -0.89458,-0.3195 -0.2769,-0.31949 -0.5325,-1.25668 -0.31949,-1.19278 -1.15018,-2.76896 -0.83069,-1.59748 -1.59748,-2.51337 -0.87329,-1.06499 -1.95958,-1.55488 -1.08628,-0.51119 -2.70506,-0.59639 z m 9.62747,23.77049 q -0.85198,0.85199 -2.27907,1.74657 -1.40578,0.87329 -2.66246,1.38449 -1.15019,0.44729 -2.55597,0.72419 -1.38448,0.27689 -2.44947,0.27689 V 136.39 q 0.6177,-0.1491 0.91589,-0.3621 0.3195,-0.213 0.53249,-0.59639 0.3621,-0.66029 0.3621,-1.68268 v -6.21952 q 0,-0.83069 -0.3195,-1.19278 -0.14909,-0.213 -0.29819,-0.2556 -0.1491,-0.0639 -0.97979,-0.2556 -1.02239,-0.25559 -1.02239,-1.19278 0,-0.55379 0.4686,-0.85199 0.48989,-0.2982 1.42708,-0.2982 h 0.70289 7.7957 q 0.95849,0 1.34188,0.2769 0.4047,0.2556 0.4047,0.91589 0,0.40469 -0.1704,0.68159 -0.1491,0.2556 -0.57509,0.55379 -0.426,0.2982 -0.5325,0.55379 -0.1065,0.2556 -0.1065,0.93719 z"
         style="font-style:normal;font-variant:normal;font-weight:normal;font-stretch:normal;font-family:Stencil;-inkscape-font-specification:Stencil;fill:#000000;stroke-width:1.09054577"
         id="path73" />
      <path
         d="m 127.54233,117.6242 h 8.06572 l 5.56394,18.78674 q 0.16011,0.49566 0.36026,0.87938 0.18013,0.30379 0.80057,0.49566 0.52036,0.17587 0.72051,0.35175 0.20013,0.17586 0.20013,0.47965 0,0.83142 -1.5611,0.83142 h -9.98708 q -0.60043,0 -0.96068,-0.22384 -0.36026,-0.23983 -0.36026,-0.62355 0,-0.31979 0.16012,-0.47968 0.16011,-0.15988 0.72051,-0.39972 0.40029,-0.15988 0.56039,-0.35174 0.16012,-0.19187 0.16012,-0.47966 0,-0.27181 -0.06,-0.47967 l -0.64046,-2.31836 h -5.58395 l 0.54038,-1.90266 h 4.48318 l -3.68261,-12.99883 z m -1.38098,4.06114 1.02073,3.30965 -3.54251,10.32872 q -0.16012,0.44769 -0.16012,0.83142 0,1.00728 1.18083,1.43898 l 0.7005,0.25582 q 0.66047,0.23983 0.66047,0.79943 0,0.79944 -1.46104,0.79944 h -5.0836 q -0.74053,0 -1.18084,-0.23983 -0.42029,-0.25582 -0.42029,-0.68751 0,-0.46367 0.88062,-0.76746 0.82058,-0.2878 1.20085,-0.51164 0.40028,-0.23984 0.76054,-0.63955 0.5604,-0.65554 0.92065,-1.74277 z"
         style="font-style:normal;font-variant:normal;font-weight:normal;font-stretch:normal;font-family:Stencil;-inkscape-font-specification:Stencil;fill:#000000;stroke-width:0.91589528"
         id="path75"
         inkscape:connector-curvature="0" />
      <path
         d="m 155.25371,117.6242 v 1.71589 q -1.1622,0.25365 -1.78079,0.7908 -0.59984,0.52223 -0.59984,1.29812 0,0.74604 0.50612,1.31303 0.50612,0.55207 1.64957,1.05938 0.7873,0.34318 3.56157,1.31304 1.68705,0.58191 2.60557,1.05937 0.93725,0.46255 1.76203,1.16383 2.21193,1.85018 2.21193,4.40165 0,1.92478 -1.19969,3.52131 -1.19969,1.59653 -3.29914,2.5067 -1.1247,0.47747 -2.47435,0.74605 -1.3309,0.28349 -2.4931,0.28349 v -1.70097 q 1.63082,-0.31334 2.34314,-0.86541 0.73106,-0.56699 0.73106,-1.52193 0,-0.99969 -1.12471,-1.76066 -0.7498,-0.49238 -2.84925,-1.2235 -2.30565,-0.80573 -3.16792,-1.14891 -0.84353,-0.34318 -1.63083,-0.80573 -3.52408,-1.99939 -3.52408,-5.32673 0,-1.70098 0.88102,-3.13338 0.88102,-1.44732 2.45562,-2.32765 2.19317,-1.22351 5.43607,-1.35779 z m 1.48086,1.71589 v -1.64129 q 1.12471,0.0597 1.94949,0.23873 0.82478,0.16413 2.34314,0.67144 0.3749,0.11937 0.61859,0.11937 0.35615,0 0.52486,-0.19398 l 0.4124,-0.4327 q 0.29991,-0.32825 0.73105,-0.32825 0.50612,0 0.73106,0.29841 0.24369,0.2835 0.24369,0.91017 v 4.92388 q 0,0.4327 -0.31867,0.7162 -0.29992,0.26857 -0.78729,0.26857 -0.37491,0 -0.69357,-0.19397 -0.16871,-0.11936 -0.28118,-0.2835 -0.0937,-0.17904 -0.18745,-0.58191 -0.20619,-0.73112 -0.71232,-1.507 -0.50611,-0.77588 -1.18094,-1.38764 -1.34964,-1.20859 -3.39286,-1.59653 z m -2.45561,17.7558 v 1.70097 q -1.5371,0 -3.39286,-0.70127 -0.69357,-0.25366 -0.956,-0.32827 -0.26243,-0.0746 -0.50612,-0.0746 -0.37489,0 -0.56235,0.10444 -0.18745,0.0895 -0.59984,0.47747 -0.33742,0.32826 -0.73106,0.32826 -1.04973,0 -1.04973,-1.28319 v -5.43119 q 0,-0.41778 0.29993,-0.70127 0.29992,-0.29842 0.7498,-0.31334 0.41239,-0.0149 0.63733,0.19397 0.24369,0.19397 0.41239,0.70127 0.43114,1.2832 1.23719,2.40226 0.82477,1.11907 1.91199,1.89495 1.10596,0.80572 2.54933,1.02954 z"
         style="font-style:normal;font-variant:normal;font-weight:normal;font-stretch:normal;font-family:Stencil;-inkscape-font-specification:Stencil;fill:#000000;stroke-width:0.85626936"
         id="path77"
         inkscape:connector-curvature="0" />
    </g>
    <rect
       style="fill:#917c6f;stroke:#000000;stroke-width:0.33116221;stroke-miterlimit:4;stroke-dasharray:none;stroke-opacity:1"
       id="rect57"
       width="16.134058"
       height="40.242649"
       x="162.20514"
       y="109.65887"
       ry="0" />
    <rect
       style="fill:#00ffff;stroke:#000000;stroke-width:0.41286466;stroke-miterlimit:4;stroke-dasharray:none;stroke-opacity:1"
       id="rect59"
       width="15.792851"
       height="7.369976"
       x="162.3004"
       y="115.42327" />
    <rect
       style="fill:#502d16;fill-rule:evenodd;stroke-width:0.11033323"
       id="rect61"
       width="20.336298"
       height="0.9449417"
       x="160.1924"
       y="149.45772"
       ry="0.47247085" />
    <rect
       style="fill:#000000;fill-rule:evenodd;stroke-width:0.14817651"
       id="rect86"
       width="2.119494"
       height="6.7651968"
       x="174.68806"
       y="3.109117"
       ry="1.0570619"
       rx="0"
       transform="matrix(0.74509751,0.66695555,-0.69071425,0.7231278,0,0)" />
    <path
       style="fill:none;stroke:#000000;stroke-width:0.19882046px;stroke-linecap:butt;stroke-linejoin:miter;stroke-opacity:1"
       d="m 178.0959,122.7874 4.81389,0.14135 0.0124,17.77739 4.0631,0.016 -0.0109,-12.53952 4.65255,0.0393"
       id="path88"
       inkscape:connector-curvature="0"
       sodipodi:nodetypes="cccccc" />
    <path
       style="fill:none;stroke:#000000;stroke-width:0.26489976px;stroke-linecap:butt;stroke-linejoin:miter;stroke-opacity:1"
       d="m 191.62694,128.22192 -4.63766,-0.0349 0.0109,12.5485 -4.06991,-0.016 0.008,-17.92717 -4.84284,-0.004"
       id="path90"
       inkscape:connector-curvature="0"
       sodipodi:nodetypes="cccccc" />
    <rect
       style="fill:#552200;fill-rule:evenodd;stroke-width:0.18775015"
       id="rect103"
       width="0.98918188"
       height="3.6481979"
       x="127.35777"
       y="-195.52081"
       ry="0"
       transform="matrix(-0.00948211,0.99995504,-0.99999711,-0.00240421,0,0)" />
    <path
       style="fill:#000000;fill-rule:evenodd;stroke-width:0.24814455"
       d="m 194.07524,127.7549 1.17515,-0.19878 0.0117,1.55517 -1.18685,-0.19879 z"
       id="rect105"
       inkscape:connector-curvature="0"
       sodipodi:nodetypes="ccccc" />
    <rect
       style="fill:#552200;fill-rule:evenodd;stroke-width:0.26458332"
       id="rect119"
       width="0.89499956"
       height="1.5761602"
       x="190.65506"
       y="128.80247" />
    <path
       style="fill:none;stroke:#000000;stroke-width:0.26458332px;stroke-linecap:butt;stroke-linejoin:miter;stroke-opacity:1"
       d="m 191.54179,129.52702 0.41342,-0.0165 0.33899,-0.17363 0.17364,-0.28112 0.009,-0.24951"
       id="path121"
       inkscape:connector-curvature="0"
       sodipodi:nodetypes="ccccc" />
    <path
       style="fill:#552200;stroke:#000000;stroke-width:0.14261577px;stroke-linecap:butt;stroke-linejoin:miter;stroke-opacity:1"
       d="m 191.8799,128.80251 c 0.001,0.0531 -0.15326,0.0865 -0.10535,0.22842 l 0.0728,-0.003"
       id="path123"
       inkscape:connector-curvature="0"
       sodipodi:nodetypes="ccc" />
    <path
       style="fill:#552200;stroke:#000000;stroke-width:0.01476378;stroke-miterlimit:4;stroke-dasharray:none;stroke-opacity:1"
       d="m 724.58626,487.82651 c -0.0447,-0.13477 -0.05,-0.15312 -0.0595,-0.20891 -0.043,-0.25096 0.0297,-0.474 0.21974,-0.6737 0.0182,-0.0191 0.0631,-0.0616 0.0999,-0.0943 0.0367,-0.0327 0.0769,-0.069 0.0893,-0.0806 0.0124,-0.0116 0.0225,-0.0204 0.0225,-0.0195 -3e-5,8.7e-4 -0.003,0.009 -0.006,0.0172 -0.003,0.009 -0.006,0.024 -0.006,0.0342 l -1.7e-4,0.0186 0.0947,-0.002 c 0.14765,-0.003 0.44234,-0.009 0.44276,-0.008 2.1e-4,3.5e-4 -10e-4,0.0162 -0.003,0.0353 -0.009,0.0988 -0.0522,0.1861 -0.13402,0.27129 -0.0216,0.0225 -0.073,0.0705 -0.11407,0.1066 -0.0411,0.0361 -0.0874,0.0793 -0.10282,0.0961 -0.0351,0.038 -0.0609,0.0756 -0.0545,0.0795 0.003,0.002 0.006,0.0436 0.01,0.13313 0.0119,0.29184 0.0161,0.3999 0.0157,0.40054 -2.8e-4,3.7e-4 -0.0884,0.004 -0.1958,0.009 -0.10741,0.004 -0.21375,0.009 -0.2363,0.0103 l -0.041,0.002 z"
       id="path125"
       inkscape:connector-curvature="0"
       transform="scale(0.26458333)" />
    <rect
       style="fill:#000000;fill-rule:evenodd;stroke-width:0.26458332"
       id="rect127"
       width="1.2030274"
       height="0.49195963"
       x="195.02272"
       y="128.06354"
       ry="0.24597982" />
  </g>
</svg>
